<?xml version="1.0" encoding="utf-8"?>
<!DOCTYPE svg PUBLIC "-//W3C//DTD SVG 1.1//EN" "http://www.w3.org/Graphics/SVG/1.1/DTD/svg11.dtd">
<svg version="1.1" id="Logo" xmlns="http://www.w3.org/2000/svg" xmlns:xlink="http://www.w3.org/1999/xlink" x="0px" y="0px"
	 viewBox="0 0 50 50" enable-background="new 0 0 50 50" xml:space="preserve">
<g>
	<path d="M25,1.9c-8.4,0-15.8,4.5-19.8,11.3c3.1,1.7,5.9,2.3,8.4,2.3c8.1,0,6.8-4.6,12.9-4.6c2.6,0,3.7,2.4,4.3,4.2
		c0.8-0.2,1.7-0.4,2.4-0.4c1.2,0,2.1,0.4,2.1,1.6c0,3.6-0.1,6.5-0.1,9.1c0,7,0.6,10.1,5.7,12.1c-0.7,0.6-1.4,1.1-2.2,1.5
		c-1.3,0.8-2.8,1.5-4.2,1.5c-4.2,0-4.9-5-5.3-10.8H29c-3.1,6.3-5.6,7.3-7.9,7.3c-3.8,0-5.5-4-5.5-8.9c0-3.6,0.9-7.5,2.6-10.7
		c-5.2,2-6.8,5.7-12.4,5.7c-1.6,0-2.8-0.3-3.7-0.7C2,23.1,1.9,24.1,1.9,25c0,12.7,10.3,23.1,23.1,23.1S48.1,37.7,48.1,25
		S37.7,1.9,25,1.9z"/>
	<path d="M28.3,22c0-1-0.1-2.1-0.3-3.2c-0.1-0.6-0.3-1.2-0.5-1.8c-2.8,2.4-4.3,8.7-4.3,11.9c0,1.3,0.2,2.1,0.8,2.1
		C25.3,31.1,28.3,27.8,28.3,22z"/>
</g>
</svg>
